<svg id="图层_1" data-name="图层 1" xmlns="http://www.w3.org/2000/svg" viewBox="0 0 765.67 151.78"><defs><style>.cls-1{fill:#1a1a1a;}</style></defs><title>logo_with_text</title><path class="cls-1" d="M217.61,265.75l-40.38-23.31-.12-.05a5,5,0,0,0-1-.43H176a4.67,4.67,0,0,0-1.06-.14h-.33a4.72,4.72,0,0,0-.83.11l-.31.07a4.73,4.73,0,0,0-1.07.44L132,265.75l-38,21.92-13.81-8a4.82,4.82,0,1,0-4.82,8.35l13.81,8v16.85a4.83,4.83,0,0,0,9.65,0V296l38-21.92h0l38-21.92,35.56,20.53v41.06L174.82,334.3,162.17,327a4.82,4.82,0,0,0-4.83,8.35l15.07,8.7a4.79,4.79,0,0,0,4.82,0l40.38-23.31a4.82,4.82,0,0,0,2.41-4.18V269.93A4.83,4.83,0,0,0,217.61,265.75Z" transform="translate(-48.86 -216.72)"/><path class="cls-1" d="M120.27,234.55a4.8,4.8,0,0,0,2.41-.65l11.76-6.79,11.77,6.79a4.82,4.82,0,0,0,4.82-8.35l-14.18-8.18a4.82,4.82,0,0,0-4.82,0l-14.17,8.18a4.82,4.82,0,0,0,2.41,9Z" transform="translate(-48.86 -216.72)"/><path class="cls-1" d="M146.21,351.32l-11.77,6.79-11.76-6.79a4.82,4.82,0,1,0-4.82,8.35L132,367.86a4.83,4.83,0,0,0,2.41.64,4.78,4.78,0,0,0,2.41-.64L151,359.67a4.82,4.82,0,0,0-4.82-8.35Z" transform="translate(-48.86 -216.72)"/><path class="cls-1" d="M174.82,298.81l14.52,8.38a4.82,4.82,0,0,0,4.82-8.35l-14.52-8.38V273.62a4.82,4.82,0,0,0-9.64,0v16.84l-38,21.91h0L95.91,333.23l-1.85,1.07L58.51,313.77V272.71l35.55-20.53,12.66,7.31a4.82,4.82,0,1,0,4.82-8.35l-15.06-8.7a4.84,4.84,0,0,0-4.83,0L51.28,265.75a4.82,4.82,0,0,0-2.42,4.18v46.62a4.81,4.81,0,0,0,2.42,4.18L91.65,344h0a5.48,5.48,0,0,0,.79.33c.13,0,.25.11.38.15a5.78,5.78,0,0,0,.6.08c.21,0,.41.08.62.08h0a4.72,4.72,0,0,0,1.23-.16,4.83,4.83,0,0,0,1.18-.49Z" transform="translate(-48.86 -216.72)"/><path class="cls-1" d="M269.92,287.5h23.56V269.31q0-6.06,6.21-6.07c3.68,0,5.52,2,5.52,6.07V320.7q0,5.66-5.62,5.66-6.1,0-6.11-5.66V299.33H269.92V320.7q0,5.66-5.71,5.66-6,0-6-5.66V269.31q0-6.06,6.11-6.07c3.74,0,5.61,2,5.61,6.07Z" transform="translate(-48.86 -216.72)"/><path class="cls-1" d="M341.49,287.2l11.13-21a5.49,5.49,0,0,1,2.09-2.33,6,6,0,0,1,2.88-.65,6.58,6.58,0,0,1,4.28,1.65,5.13,5.13,0,0,1,2,4.12,4.82,4.82,0,0,1-.7,2.78l-15.9,28V320.2q0,6.17-5.67,6.16-6.06,0-6.06-6.16V299.82l-15.61-27.33a7,7,0,0,1-.6-3,5.9,5.9,0,0,1,1.94-4.43,6.08,6.08,0,0,1,4.23-1.84A5.21,5.21,0,0,1,328,264a6.06,6.06,0,0,1,2.24,2.23Z" transform="translate(-48.86 -216.72)"/><path class="cls-1" d="M398.94,263.24a18.87,18.87,0,0,1,7.56,1.55,19.69,19.69,0,0,1,6.26,4.22,20,20,0,0,1,4.23,6.26,19,19,0,0,1,1.54,7.56,18.75,18.75,0,0,1-1.55,7.6,20,20,0,0,1-10.52,10.44,19.17,19.17,0,0,1-7.58,1.54H389.4v18c0,4-1.94,6-5.81,6s-5.92-2-5.92-6V270.2c0-4.63,2.36-7,7.06-7Zm-9.54,27.34H399A7.81,7.81,0,1,0,399,275h-9.6Z" transform="translate(-48.86 -216.72)"/><path class="cls-1" d="M466.34,263.24a5.85,5.85,0,0,1,4.22,1.69,5.6,5.6,0,0,1,1.74,4.18,5.94,5.94,0,0,1-6,6H444.07V286h20.78a5.89,5.89,0,0,1,4.22,1.67,5.53,5.53,0,0,1,1.74,4.14,6,6,0,0,1-1.74,4.14,5.56,5.56,0,0,1-4.22,1.88H444.07v16.69h22.17a5.52,5.52,0,0,1,4.08,1.73,5.91,5.91,0,0,1,1.68,4.29,5.72,5.72,0,0,1-5.76,5.81H438.16a5.54,5.54,0,0,1-4.19-1.69,5.78,5.78,0,0,1-1.63-4.17V269.11a5.82,5.82,0,0,1,1.63-4.18,5.57,5.57,0,0,1,4.19-1.69Z" transform="translate(-48.86 -216.72)"/><path class="cls-1" d="M508,263.24a18.82,18.82,0,0,1,7.55,1.55A19.58,19.58,0,0,1,521.8,269a20,20,0,0,1,4.23,6.26,18.86,18.86,0,0,1,1.54,7.56,19.32,19.32,0,0,1-3,10.68,19,19,0,0,1-8.05,7l8.74,17.09a5,5,0,0,1,.5,1.55,12.72,12.72,0,0,1,.1,1.54,5.12,5.12,0,0,1-1.84,4.07,6.15,6.15,0,0,1-4.12,1.59,5.44,5.44,0,0,1-5-2.88l-10.7-21.07h-5.8v18c0,4-1.93,6-5.81,6s-5.91-2-5.91-6V270.2c0-4.63,2.35-7,7-7Zm-9.55,27.34H508A7.81,7.81,0,1,0,508,275h-9.6Z" transform="translate(-48.86 -216.72)"/><path class="cls-1" d="M555.2,280,571,264.44a3.54,3.54,0,0,1,1.64-.95,7.76,7.76,0,0,1,1.94-.25,5.32,5.32,0,0,1,4.17,1.79,5.63,5.63,0,0,1,1.59,3.78,7.53,7.53,0,0,1-.3,2.19,5.24,5.24,0,0,1-1.39,2.09L559,292l23.56,24.35a6.43,6.43,0,0,1,1.78,4.38,5,5,0,0,1-2,4.07,6.73,6.73,0,0,1-4.28,1.59,5.28,5.28,0,0,1-4-2L555.2,304.49V320.7q0,5.66-5.81,5.66t-5.92-5.66V269.31q0-6.06,6-6.07c3.81,0,5.72,2,5.72,6.07Z" transform="translate(-48.86 -216.72)"/><path class="cls-1" d="M638,304.39V269c0-3.84,2-5.77,5.86-5.77s6.07,1.93,6.07,5.77v50.3a6.83,6.83,0,0,1-1.94,5.21,6.34,6.34,0,0,1-4.52,1.84,7,7,0,0,1-2.84-.64,5.76,5.76,0,0,1-2.43-2.14L610.56,286.8v33.6c0,4-2,6-6,6s-6-2-6-6V268.81a5.13,5.13,0,0,1,1.69-4.07,6,6,0,0,1,4.17-1.5,5.74,5.74,0,0,1,4.48,2.19Z" transform="translate(-48.86 -216.72)"/><path class="cls-1" d="M698.34,261.85a33.13,33.13,0,0,1,13.27,2.64,34.1,34.1,0,0,1,10.63,7.1,32.07,32.07,0,0,1,7.06,10.49,33.35,33.35,0,0,1,0,25.65,33.15,33.15,0,0,1-7.06,10.48,32.8,32.8,0,0,1-23.36,9.55,32.94,32.94,0,0,1-30.56-19.89,31.3,31.3,0,0,1-2.64-12.82,32.79,32.79,0,0,1,2.49-12.67,33.24,33.24,0,0,1,17.29-17.84A31.16,31.16,0,0,1,698.34,261.85Zm.29,11.73a19.85,19.85,0,0,0-8.3,1.74,21.12,21.12,0,0,0-6.61,4.67,21.9,21.9,0,0,0-4.37,6.86,21.65,21.65,0,0,0-1.59,8.2,20.74,20.74,0,0,0,1.59,8.15,21.17,21.17,0,0,0,4.42,6.66,21.25,21.25,0,0,0,23.16,4.53,21.13,21.13,0,0,0,11.24-11.29,21,21,0,0,0,1.64-8.25,20.57,20.57,0,0,0-1.69-8.25,21.59,21.59,0,0,0-11.33-11.33A20.18,20.18,0,0,0,698.63,273.58Z" transform="translate(-48.86 -216.72)"/><path class="cls-1" d="M761,304.69l8.94-35.88q1.4-5.56,6.66-5.57t6.86,5.67l9,35.88,10.53-37.47a5.13,5.13,0,0,1,2.19-3.08,6.49,6.49,0,0,1,7.61.5,5,5,0,0,1,1.68,5.06c-.1.4-.21.87-.34,1.39l-15,49.9a7.21,7.21,0,0,1-2.69,3.93,7.07,7.07,0,0,1-4.17,1.34,8.38,8.38,0,0,1-4.37-1.24,6.13,6.13,0,0,1-2.79-4l-8.45-33-8.45,33a6.48,6.48,0,0,1-2.93,4,8.2,8.2,0,0,1-4.12,1.24,7.78,7.78,0,0,1-4.38-1.24,6.82,6.82,0,0,1-2.68-4l-14.91-49.9a5.4,5.4,0,0,1-.4-2.38,5,5,0,0,1,1.79-4.07,6.43,6.43,0,0,1,4.27-1.5q4.28,0,5.37,3.78Z" transform="translate(-48.86 -216.72)"/></svg>